<?xml version='1.0' encoding='utf-8'?>
<svg xmlns="http://www.w3.org/2000/svg" enable-background="new 0 0 1872.2 1590.2" version="1.1" viewBox="0 0 1872.2 1590.2">
<style>.st0 {
  fill: #80ab40;
}

.st1 {
  fill: #a5ce39;
}

.st2 {
  fill: #d8e074;
}

.st3 {
  fill: #dce8a3;
}

.st4 {
  fill: #f0f5d4;
}

</style>
<rect class="st0" x="307.3" y="1214.9" width="24" height="24"></rect>
<rect class="st0" x="307.3" y="1188.3" width="24" height="24"></rect>
<rect class="st1" x="307.3" y="1161.8" width="24" height="24"></rect>
<rect class="st2" x="307.3" y="1108.8" width="24" height="24"></rect>
<rect class="st1" x="307.3" y="1082.3" width="24" height="24"></rect>
<rect class="st2" x="307.3" y="1055.7" width="24" height="24"></rect>
<rect class="st1" x="307.3" y="1029.2" width="24" height="24"></rect>
<rect class="st3" x="307.3" y="976.2" width="24" height="24"></rect>
<rect class="st3" x="307.3" y="949.7" width="24" height="24"></rect>
<rect class="st1" x="307.3" y="923.1" width="24" height="24"></rect>
<rect class="st4" x="307.3" y="896.6" width="24" height="24"></rect>
<rect class="st4" x="307.3" y="843.6" width="24" height="24"></rect>
<rect class="st0" x="334.3" y="1188.3" width="24" height="24"></rect>
<rect class="st1" x="334.3" y="1161.8" width="24" height="24"></rect>
<rect class="st1" x="334.3" y="1135.3" width="24" height="24"></rect>
<rect class="st2" x="334.3" y="1108.8" width="24" height="24"></rect>
<rect class="st2" x="334.3" y="1082.3" width="24" height="24"></rect>
<rect class="st2" x="334.3" y="1055.7" width="24" height="24"></rect>
<rect class="st2" x="334.3" y="1029.2" width="24" height="24"></rect>
<rect class="st3" x="334.3" y="1002.7" width="24" height="24"></rect>
<rect class="st3" x="334.3" y="949.7" width="24" height="24"></rect>
<rect class="st3" x="334.3" y="923.1" width="24" height="24"></rect>
<rect class="st4" x="334.3" y="896.6" width="24" height="24"></rect>
<rect class="st4" x="334.3" y="870.1" width="24" height="24"></rect>
<rect class="st4" x="334.3" y="843.6" width="24" height="24"></rect>
<rect class="st4" x="334.3" y="817.1" width="24" height="24"></rect>
<rect class="st0" x="361.7" y="1214.9" width="24" height="24"></rect>
<rect class="st0" x="361.7" y="1188.3" width="24" height="24"></rect>
<rect class="st1" x="361.7" y="1161.8" width="24" height="24"></rect>
<rect class="st1" x="361.7" y="1135.3" width="24" height="24"></rect>
<rect class="st2" x="361.7" y="1108.8" width="24" height="24"></rect>
<rect class="st1" x="361.7" y="1082.3" width="24" height="24"></rect>
<rect class="st2" x="361.7" y="1055.7" width="24" height="24"></rect>
<rect class="st2" x="361.7" y="1029.2" width="24" height="24"></rect>
<rect class="st3" x="361.7" y="1002.7" width="24" height="24"></rect>
<rect class="st3" x="361.7" y="976.2" width="24" height="24"></rect>
<rect class="st0" x="361.7" y="949.7" width="24" height="24"></rect>
<rect class="st3" x="361.7" y="923.1" width="24" height="24"></rect>
<rect class="st4" x="361.7" y="896.6" width="24" height="24"></rect>
<rect class="st4" x="361.7" y="870.1" width="24" height="24"></rect>
<rect class="st4" x="361.7" y="843.6" width="24" height="24"></rect>
<rect class="st1" x="361.7" y="817.1" width="24" height="24"></rect>
<rect class="st0" x="388.7" y="1214.9" width="24" height="24"></rect>
<rect class="st0" x="388.7" y="1188.3" width="24" height="24"></rect>
<rect class="st0" x="388.7" y="1161.8" width="24" height="24"></rect>
<rect class="st1" x="388.7" y="1135.3" width="24" height="24"></rect>
<rect class="st2" x="388.7" y="1108.8" width="24" height="24"></rect>
<rect class="st2" x="388.7" y="1055.7" width="24" height="24"></rect>
<rect class="st1" x="388.7" y="1002.7" width="24" height="24"></rect>
<rect class="st3" x="388.7" y="976.2" width="24" height="24"></rect>
<rect class="st3" x="388.7" y="949.7" width="24" height="24"></rect>
<rect class="st3" x="388.7" y="923.1" width="24" height="24"></rect>
<rect class="st4" x="388.7" y="896.6" width="24" height="24"></rect>
<rect class="st4" x="388.7" y="870.1" width="24" height="24"></rect>
<rect class="st4" x="388.7" y="843.6" width="24" height="24"></rect>
<rect class="st0" x="416" y="1214.9" width="24" height="24"></rect>
<rect class="st0" x="416" y="1188.3" width="24" height="24"></rect>
<rect class="st1" x="416" y="1135.3" width="24" height="24"></rect>
<rect class="st2" x="416" y="1108.8" width="24" height="24"></rect>
<rect class="st2" x="416" y="1082.3" width="24" height="24"></rect>
<rect class="st2" x="416" y="1055.7" width="24" height="24"></rect>
<rect class="st2" x="416" y="1029.2" width="24" height="24"></rect>
<rect class="st3" x="416" y="1002.7" width="24" height="24"></rect>
<rect class="st3" x="416" y="976.2" width="24" height="24"></rect>
<rect class="st3" x="416" y="949.7" width="24" height="24"></rect>
<rect class="st3" x="416" y="923.1" width="24" height="24"></rect>
<rect class="st4" x="416" y="896.6" width="24" height="24"></rect>
<rect class="st4" x="416" y="843.6" width="24" height="24"></rect>
<rect class="st4" x="416" y="817.1" width="24" height="24"></rect>
<rect class="st1" x="443" y="1214.9" width="24" height="24"></rect>
<rect class="st0" x="443" y="1188.3" width="24" height="24"></rect>
<rect class="st0" x="443" y="1161.8" width="24" height="24"></rect>
<rect class="st1" x="443" y="1135.3" width="24" height="24"></rect>
<rect class="st1" x="443" y="1108.8" width="24" height="24"></rect>
<rect class="st2" x="443" y="1082.3" width="24" height="24"></rect>
<rect class="st2" x="443" y="1055.7" width="24" height="24"></rect>
<rect class="st2" x="443" y="1029.2" width="24" height="24"></rect>
<rect class="st3" x="443" y="949.7" width="24" height="24"></rect>
<rect class="st3" x="443" y="923.1" width="24" height="24"></rect>
<rect class="st0" x="443" y="896.6" width="24" height="24"></rect>
<rect class="st4" x="443" y="843.6" width="24" height="24"></rect>
<rect class="st4" x="443" y="817.1" width="24" height="24"></rect>
<rect class="st0" x="470.4" y="1214.9" width="24" height="24"></rect>
<rect class="st0" x="470.4" y="1188.3" width="24" height="24"></rect>
<rect class="st0" x="470.4" y="1161.8" width="24" height="24"></rect>
<rect class="st1" x="470.4" y="1135.3" width="24" height="24"></rect>
<rect class="st2" x="470.4" y="1082.3" width="24" height="24"></rect>
<rect class="st2" x="470.4" y="1055.7" width="24" height="24"></rect>
<rect class="st2" x="470.4" y="1029.2" width="24" height="24"></rect>
<rect class="st3" x="470.4" y="1002.7" width="24" height="24"></rect>
<rect class="st3" x="470.4" y="976.2" width="24" height="24"></rect>
<rect class="st2" x="470.4" y="949.7" width="24" height="24"></rect>
<rect class="st3" x="470.4" y="923.1" width="24" height="24"></rect>
<rect class="st4" x="470.4" y="896.6" width="24" height="24"></rect>
<rect class="st0" x="497.4" y="1214.9" width="24" height="24"></rect>
<rect class="st1" x="497.4" y="1188.3" width="24" height="24"></rect>
<rect class="st0" x="497.4" y="1161.8" width="24" height="24"></rect>
<rect class="st1" x="497.4" y="1135.3" width="24" height="24"></rect>
<rect class="st2" x="497.4" y="1108.8" width="24" height="24"></rect>
<rect class="st1" x="497.4" y="1082.3" width="24" height="24"></rect>
<rect class="st0" x="497.4" y="1055.7" width="24" height="24"></rect>
<rect class="st2" x="497.4" y="1029.2" width="24" height="24"></rect>
<rect class="st1" x="497.4" y="1002.7" width="24" height="24"></rect>
<rect class="st3" x="497.4" y="976.2" width="24" height="24"></rect>
<rect class="st3" x="497.4" y="949.7" width="24" height="24"></rect>
<rect class="st3" x="497.4" y="923.1" width="24" height="24"></rect>
<rect class="st4" x="497.4" y="896.6" width="24" height="24"></rect>
<rect class="st4" x="497.4" y="870.1" width="24" height="24"></rect>
<rect class="st1" x="524.8" y="1214.9" width="24" height="24"></rect>
<rect class="st0" x="524.8" y="1188.3" width="24" height="24"></rect>
<rect class="st1" x="524.8" y="1135.3" width="24" height="24"></rect>
<rect class="st2" x="524.8" y="1108.8" width="24" height="24"></rect>
<rect class="st1" x="524.8" y="1082.3" width="24" height="24"></rect>
<rect class="st2" x="524.8" y="1055.7" width="24" height="24"></rect>
<rect class="st2" x="524.8" y="1029.2" width="24" height="24"></rect>
<rect class="st3" x="524.8" y="1002.7" width="24" height="24"></rect>
<rect class="st3" x="524.8" y="976.2" width="24" height="24"></rect>
<rect class="st3" x="524.8" y="923.1" width="24" height="24"></rect>
<rect class="st4" x="524.8" y="896.6" width="24" height="24"></rect>
<rect class="st4" x="524.8" y="870.1" width="24" height="24"></rect>
<rect class="st4" x="524.8" y="843.6" width="24" height="24"></rect>
<rect class="st4" x="524.8" y="817.1" width="24" height="24"></rect>
<rect class="st0" x="551.8" y="1214.9" width="24" height="24"></rect>
<rect class="st0" x="551.8" y="1188.3" width="24" height="24"></rect>
<rect class="st0" x="551.8" y="1161.8" width="24" height="24"></rect>
<rect class="st1" x="551.8" y="1135.3" width="24" height="24"></rect>
<rect class="st2" x="551.8" y="1108.8" width="24" height="24"></rect>
<rect class="st2" x="551.8" y="1082.3" width="24" height="24"></rect>
<rect class="st2" x="551.8" y="1055.7" width="24" height="24"></rect>
<rect class="st2" x="551.8" y="1029.2" width="24" height="24"></rect>
<rect class="st3" x="551.8" y="976.2" width="24" height="24"></rect>
<rect class="st3" x="551.8" y="949.7" width="24" height="24"></rect>
<rect class="st4" x="551.8" y="843.6" width="24" height="24"></rect>
<rect class="st4" x="551.8" y="817.1" width="24" height="24"></rect>
<rect class="st0" x="579.2" y="1214.9" width="24" height="24"></rect>
<rect class="st0" x="579.2" y="1188.3" width="24" height="24"></rect>
<rect class="st0" x="579.2" y="1161.8" width="24" height="24"></rect>
<rect class="st1" x="579.2" y="1135.3" width="24" height="24"></rect>
<rect class="st2" x="579.2" y="1108.8" width="24" height="24"></rect>
<rect class="st2" x="579.2" y="1082.3" width="24" height="24"></rect>
<rect class="st2" x="579.2" y="1055.7" width="24" height="24"></rect>
<rect class="st2" x="579.2" y="1029.2" width="24" height="24"></rect>
<rect class="st3" x="579.2" y="1002.7" width="24" height="24"></rect>
<rect class="st3" x="579.2" y="976.2" width="24" height="24"></rect>
<rect class="st3" x="579.2" y="949.7" width="24" height="24"></rect>
<rect class="st3" x="579.2" y="923.1" width="24" height="24"></rect>
<rect class="st4" x="579.2" y="896.6" width="24" height="24"></rect>
<rect class="st2" x="579.2" y="870.1" width="24" height="24"></rect>
<rect class="st0" x="606.2" y="1214.9" width="24" height="24"></rect>
<rect class="st0" x="606.2" y="1188.3" width="24" height="24"></rect>
<rect class="st0" x="606.2" y="1161.8" width="24" height="24"></rect>
<rect class="st0" x="606.2" y="1135.3" width="24" height="24"></rect>
<rect class="st2" x="606.2" y="1108.8" width="24" height="24"></rect>
<rect class="st2" x="606.2" y="1082.3" width="24" height="24"></rect>
<rect class="st2" x="606.2" y="1055.7" width="24" height="24"></rect>
<rect class="st1" x="606.2" y="1029.2" width="24" height="24"></rect>
<rect class="st4" x="606.2" y="896.6" width="24" height="24"></rect>
<rect class="st4" x="606.2" y="870.1" width="24" height="24"></rect>
<rect class="st2" x="606.2" y="843.6" width="24" height="24"></rect>
<rect class="st4" x="606.2" y="817.1" width="24" height="24"></rect>
<rect class="st1" x="633.6" y="1214.9" width="24" height="24"></rect>
<rect class="st0" x="633.6" y="1188.3" width="24" height="24"></rect>
<rect class="st0" x="633.6" y="1161.8" width="24" height="24"></rect>
<rect class="st2" x="633.6" y="1082.3" width="24" height="24"></rect>
<rect class="st2" x="633.6" y="1055.7" width="24" height="24"></rect>
<rect class="st2" x="633.6" y="1029.2" width="24" height="24"></rect>
<rect class="st3" x="633.6" y="1002.7" width="24" height="24"></rect>
<rect class="st0" x="633.6" y="976.2" width="24" height="24"></rect>
<rect class="st3" x="633.6" y="949.7" width="24" height="24"></rect>
<rect class="st3" x="633.6" y="923.1" width="24" height="24"></rect>
<rect class="st4" x="633.6" y="896.6" width="24" height="24"></rect>
<rect class="st0" x="660.6" y="1214.9" width="24" height="24"></rect>
<rect class="st0" x="660.6" y="1188.3" width="24" height="24"></rect>
<rect class="st0" x="660.6" y="1161.8" width="24" height="24"></rect>
<rect class="st1" x="660.6" y="1135.3" width="24" height="24"></rect>
<rect class="st2" x="660.6" y="1108.8" width="24" height="24"></rect>
<rect class="st1" x="660.6" y="1082.3" width="24" height="24"></rect>
<rect class="st2" x="660.6" y="1055.7" width="24" height="24"></rect>
<rect class="st1" x="660.6" y="1029.2" width="24" height="24"></rect>
<rect class="st3" x="660.6" y="1002.7" width="24" height="24"></rect>
<rect class="st3" x="660.6" y="976.2" width="24" height="24"></rect>
<rect class="st3" x="660.6" y="949.7" width="24" height="24"></rect>
<rect class="st3" x="660.6" y="923.1" width="24" height="24"></rect>
<rect class="st4" x="660.6" y="870.1" width="24" height="24"></rect>
<rect class="st4" x="660.6" y="843.6" width="24" height="24"></rect>
<rect class="st4" x="660.6" y="817.1" width="24" height="24"></rect>
<rect class="st0" x="688" y="1214.9" width="24" height="24"></rect>
<rect class="st0" x="688" y="1188.3" width="24" height="24"></rect>
<rect class="st0" x="688" y="1161.8" width="24" height="24"></rect>
<rect class="st1" x="688" y="1135.3" width="24" height="24"></rect>
<rect class="st2" x="688" y="1108.8" width="24" height="24"></rect>
<rect class="st2" x="688" y="1082.3" width="24" height="24"></rect>
<rect class="st2" x="688" y="1055.7" width="24" height="24"></rect>
<rect class="st2" x="688" y="1029.2" width="24" height="24"></rect>
<rect class="st3" x="688" y="976.2" width="24" height="24"></rect>
<rect class="st3" x="688" y="949.7" width="24" height="24"></rect>
<rect class="st4" x="688" y="896.6" width="24" height="24"></rect>
<rect class="st4" x="688" y="870.1" width="24" height="24"></rect>
<rect class="st4" x="688" y="843.6" width="24" height="24"></rect>
<rect class="st4" x="688" y="817.1" width="24" height="24"></rect>
<rect class="st0" x="715" y="1214.9" width="24" height="24"></rect>
<rect class="st0" x="715" y="1188.3" width="24" height="24"></rect>
<rect class="st0" x="715" y="1161.8" width="24" height="24"></rect>
<rect class="st1" x="715" y="1135.3" width="24" height="24"></rect>
<rect class="st1" x="715" y="1108.8" width="24" height="24"></rect>
<rect class="st2" x="715" y="1082.3" width="24" height="24"></rect>
<rect class="st1" x="715" y="1055.7" width="24" height="24"></rect>
<rect class="st2" x="715" y="1029.2" width="24" height="24"></rect>
<rect class="st3" x="715" y="1002.7" width="24" height="24"></rect>
<rect class="st0" x="715" y="976.2" width="24" height="24"></rect>
<rect class="st3" x="715" y="949.7" width="24" height="24"></rect>
<rect class="st3" x="715" y="923.1" width="24" height="24"></rect>
<rect class="st4" x="715" y="896.6" width="24" height="24"></rect>
<rect class="st0" x="742.3" y="1214.9" width="24" height="24"></rect>
<rect class="st0" x="742.3" y="1188.3" width="24" height="24"></rect>
<rect class="st0" x="742.3" y="1161.8" width="24" height="24"></rect>
<rect class="st1" x="742.3" y="1135.3" width="24" height="24"></rect>
<rect class="st1" x="742.3" y="1082.3" width="24" height="24"></rect>
<rect class="st0" x="742.3" y="1055.7" width="24" height="24"></rect>
<rect class="st2" x="742.3" y="1029.2" width="24" height="24"></rect>
<rect class="st3" x="742.3" y="976.2" width="24" height="24"></rect>
<rect class="st3" x="742.3" y="949.7" width="24" height="24"></rect>
<rect class="st4" x="742.3" y="896.6" width="24" height="24"></rect>
<rect class="st4" x="742.3" y="870.1" width="24" height="24"></rect>
<rect class="st4" x="742.3" y="843.6" width="24" height="24"></rect>
<rect class="st0" x="769.3" y="1161.8" width="24" height="24"></rect>
<rect class="st1" x="769.3" y="1135.3" width="24" height="24"></rect>
<rect class="st2" x="769.3" y="1108.8" width="24" height="24"></rect>
<rect class="st2" x="769.3" y="1082.3" width="24" height="24"></rect>
<rect class="st2" x="769.3" y="1055.7" width="24" height="24"></rect>
<rect class="st2" x="769.3" y="1029.2" width="24" height="24"></rect>
<rect class="st2" x="769.3" y="1002.7" width="24" height="24"></rect>
<rect class="st1" x="769.3" y="1188.3" width="24" height="24"></rect>
<rect class="st3" x="769.3" y="949.7" width="24" height="24"></rect>
<rect class="st3" x="769.3" y="923.1" width="24" height="24"></rect>
<rect class="st4" x="769.3" y="896.6" width="24" height="24"></rect>
<rect class="st4" x="769.3" y="843.6" width="24" height="24"></rect>
<rect class="st4" x="769.3" y="817.1" width="24" height="24"></rect>
<rect class="st0" x="796.7" y="1214.9" width="24" height="24"></rect>
<rect class="st0" x="796.7" y="1188.3" width="24" height="24"></rect>
<rect class="st0" x="796.7" y="1161.8" width="24" height="24"></rect>
<rect class="st0" x="796.7" y="1135.3" width="24" height="24"></rect>
<rect class="st2" x="796.7" y="1108.8" width="24" height="24"></rect>
<rect class="st2" x="796.7" y="1055.7" width="24" height="24"></rect>
<rect class="st2" x="796.7" y="1029.2" width="24" height="24"></rect>
<rect class="st2" x="796.7" y="1002.7" width="24" height="24"></rect>
<rect class="st3" x="796.7" y="976.2" width="24" height="24"></rect>
<rect class="st3" x="796.7" y="949.7" width="24" height="24"></rect>
<rect class="st3" x="796.7" y="923.1" width="24" height="24"></rect>
<rect class="st4" x="796.7" y="896.6" width="24" height="24"></rect>
<rect class="st0" x="796.7" y="870.1" width="24" height="24"></rect>
<rect class="st2" x="796.7" y="843.6" width="24" height="24"></rect>
<rect class="st0" x="823.7" y="1214.9" width="24" height="24"></rect>
<rect class="st0" x="823.7" y="1188.3" width="24" height="24"></rect>
<rect class="st0" x="823.7" y="1161.8" width="24" height="24"></rect>
<rect class="st2" x="823.7" y="1108.8" width="24" height="24"></rect>
<rect class="st2" x="823.7" y="1082.3" width="24" height="24"></rect>
<rect class="st2" x="823.7" y="1055.7" width="24" height="24"></rect>
<rect class="st2" x="823.7" y="1029.2" width="24" height="24"></rect>
<rect class="st2" x="823.7" y="1002.7" width="24" height="24"></rect>
<rect class="st0" x="823.7" y="976.2" width="24" height="24"></rect>
<rect class="st3" x="823.7" y="949.7" width="24" height="24"></rect>
<rect class="st4" x="823.7" y="896.6" width="24" height="24"></rect>
<rect class="st4" x="823.7" y="870.1" width="24" height="24"></rect>
<rect class="st4" x="823.7" y="843.6" width="24" height="24"></rect>
<rect class="st4" x="823.7" y="817.1" width="24" height="24"></rect>
<rect class="st0" x="851.1" y="1214.9" width="24" height="24"></rect>
<rect class="st0" x="851.1" y="1188.3" width="24" height="24"></rect>
<rect class="st0" x="851.1" y="1161.8" width="24" height="24"></rect>
<rect class="st1" x="851.1" y="1135.3" width="24" height="24"></rect>
<rect class="st2" x="851.1" y="1108.8" width="24" height="24"></rect>
<rect class="st1" x="851.1" y="1082.3" width="24" height="24"></rect>
<rect class="st2" x="851.1" y="1055.7" width="24" height="24"></rect>
<rect class="st1" x="851.1" y="1002.7" width="24" height="24"></rect>
<rect class="st3" x="851.1" y="949.7" width="24" height="24"></rect>
<rect class="st3" x="851.1" y="923.1" width="24" height="24"></rect>
<rect class="st2" x="851.1" y="896.6" width="24" height="24"></rect>
<rect class="st4" x="851.1" y="870.1" width="24" height="24"></rect>
<rect class="st4" x="851.1" y="843.6" width="24" height="24"></rect>
<rect class="st0" x="878.1" y="1214.9" width="24" height="24"></rect>
<rect class="st0" x="878.1" y="1188.3" width="24" height="24"></rect>
<rect class="st0" x="878.1" y="1161.8" width="24" height="24"></rect>
<rect class="st1" x="878.1" y="1135.3" width="24" height="24"></rect>
<rect class="st2" x="878.1" y="1108.8" width="24" height="24"></rect>
<rect class="st2" x="878.1" y="1082.3" width="24" height="24"></rect>
<rect class="st2" x="878.1" y="1029.2" width="24" height="24"></rect>
<rect class="st2" x="878.1" y="1002.7" width="24" height="24"></rect>
<rect class="st3" x="878.1" y="949.7" width="24" height="24"></rect>
<rect class="st4" x="878.1" y="896.6" width="24" height="24"></rect>
<rect class="st0" x="905.5" y="1214.9" width="24" height="24"></rect>
<rect class="st0" x="905.5" y="1188.3" width="24" height="24"></rect>
<rect class="st0" x="905.5" y="1161.8" width="24" height="24"></rect>
<rect class="st1" x="905.5" y="1135.3" width="24" height="24"></rect>
<rect class="st2" x="905.5" y="1108.8" width="24" height="24"></rect>
<rect class="st2" x="905.5" y="1082.3" width="24" height="24"></rect>
<rect class="st2" x="905.5" y="1055.7" width="24" height="24"></rect>
<rect class="st2" x="905.5" y="1029.2" width="24" height="24"></rect>
<rect class="st2" x="905.5" y="1002.7" width="24" height="24"></rect>
<rect class="st3" x="905.5" y="976.2" width="24" height="24"></rect>
<rect class="st3" x="905.5" y="949.7" width="24" height="24"></rect>
<rect class="st3" x="905.5" y="923.1" width="24" height="24"></rect>
<rect class="st4" x="905.5" y="896.6" width="24" height="24"></rect>
<rect class="st1" x="905.5" y="870.1" width="24" height="24"></rect>
<rect class="st4" x="905.5" y="843.6" width="24" height="24"></rect>
<rect class="st4" x="905.5" y="817.1" width="24" height="24"></rect>
<rect class="st0" x="932.5" y="1214.9" width="24" height="24"></rect>
<rect class="st0" x="932.5" y="1188.3" width="24" height="24"></rect>
<rect class="st1" x="932.5" y="1135.3" width="24" height="24"></rect>
<rect class="st2" x="932.5" y="1108.8" width="24" height="24"></rect>
<rect class="st2" x="932.5" y="1082.3" width="24" height="24"></rect>
<rect class="st0" x="932.5" y="1055.7" width="24" height="24"></rect>
<rect class="st1" x="932.5" y="1029.2" width="24" height="24"></rect>
<rect class="st2" x="932.5" y="1002.7" width="24" height="24"></rect>
<rect class="st3" x="932.5" y="976.2" width="24" height="24"></rect>
<rect class="st3" x="932.5" y="949.7" width="24" height="24"></rect>
<rect class="st3" x="932.5" y="923.1" width="24" height="24"></rect>
<rect class="st4" x="932.5" y="896.6" width="24" height="24"></rect>
<rect class="st4" x="932.5" y="870.1" width="24" height="24"></rect>
<rect class="st4" x="932.5" y="817.1" width="24" height="24"></rect>
<rect class="st0" x="959.9" y="1214.9" width="24" height="24"></rect>
<rect class="st1" x="959.9" y="1188.3" width="24" height="24"></rect>
<rect class="st0" x="959.9" y="1161.8" width="24" height="24"></rect>
<rect class="st1" x="959.9" y="1135.3" width="24" height="24"></rect>
<rect class="st2" x="959.9" y="1108.8" width="24" height="24"></rect>
<rect class="st2" x="959.9" y="1029.2" width="24" height="24"></rect>
<rect class="st2" x="959.9" y="1002.7" width="24" height="24"></rect>
<rect class="st3" x="959.9" y="976.2" width="24" height="24"></rect>
<rect class="st1" x="959.9" y="949.7" width="24" height="24"></rect>
<rect class="st3" x="959.9" y="923.1" width="24" height="24"></rect>
<rect class="st4" x="959.9" y="896.6" width="24" height="24"></rect>
<rect class="st0" x="986.9" y="1214.9" width="24" height="24"></rect>
<rect class="st0" x="986.9" y="1188.3" width="24" height="24"></rect>
<rect class="st0" x="986.9" y="1161.8" width="24" height="24"></rect>
<rect class="st1" x="986.9" y="1135.3" width="24" height="24"></rect>
<rect class="st2" x="986.9" y="1108.8" width="24" height="24"></rect>
<rect class="st2" x="986.9" y="1082.3" width="24" height="24"></rect>
<rect class="st2" x="986.9" y="1055.7" width="24" height="24"></rect>
<rect class="st1" x="986.9" y="1029.2" width="24" height="24"></rect>
<rect class="st2" x="986.9" y="1002.7" width="24" height="24"></rect>
<rect class="st3" x="986.9" y="949.7" width="24" height="24"></rect>
<rect class="st3" x="986.9" y="923.1" width="24" height="24"></rect>
<rect class="st4" x="986.9" y="896.6" width="24" height="24"></rect>
<rect class="st4" x="986.9" y="870.1" width="24" height="24"></rect>
<rect class="st4" x="986.9" y="843.6" width="24" height="24"></rect>
<rect class="st4" x="986.9" y="817.1" width="24" height="24"></rect>
<rect class="st0" x="1014.3" y="1214.9" width="24" height="24"></rect>
<rect class="st0" x="1014.3" y="1188.3" width="24" height="24"></rect>
<rect class="st0" x="1014.3" y="1161.8" width="24" height="24"></rect>
<rect class="st1" x="1014.3" y="1135.3" width="24" height="24"></rect>
<rect class="st2" x="1014.3" y="1108.8" width="24" height="24"></rect>
<rect class="st2" x="1014.3" y="1082.3" width="24" height="24"></rect>
<rect class="st2" x="1014.3" y="1055.7" width="24" height="24"></rect>
<rect class="st2" x="1014.3" y="1029.2" width="24" height="24"></rect>
<rect class="st2" x="1014.3" y="1002.7" width="24" height="24"></rect>
<rect class="st3" x="1014.3" y="976.2" width="24" height="24"></rect>
<rect class="st3" x="1014.3" y="949.7" width="24" height="24"></rect>
<rect class="st4" x="1014.3" y="896.6" width="24" height="24"></rect>
<rect class="st4" x="1014.3" y="843.6" width="24" height="24"></rect>
<rect class="st4" x="1014.3" y="817.1" width="24" height="24"></rect>
<rect class="st0" x="1041.3" y="1214.9" width="24" height="24"></rect>
<rect class="st0" x="1041.3" y="1188.3" width="24" height="24"></rect>
<rect class="st1" x="1041.3" y="1161.8" width="24" height="24"></rect>
<rect class="st1" x="1041.3" y="1135.3" width="24" height="24"></rect>
<rect class="st2" x="1041.3" y="1108.8" width="24" height="24"></rect>
<rect class="st2" x="1041.3" y="1082.3" width="24" height="24"></rect>
<rect class="st2" x="1041.3" y="1055.7" width="24" height="24"></rect>
<rect class="st2" x="1041.3" y="1029.2" width="24" height="24"></rect>
<rect class="st1" x="1041.3" y="1002.7" width="24" height="24"></rect>
<rect class="st3" x="1041.3" y="976.2" width="24" height="24"></rect>
<rect class="st3" x="1041.3" y="923.1" width="24" height="24"></rect>
<rect class="st0" x="1041.3" y="896.6" width="24" height="24"></rect>
<rect class="st4" x="1041.3" y="870.1" width="24" height="24"></rect>
<rect class="st4" x="1041.3" y="843.6" width="24" height="24"></rect>
</svg>