<svg xmlns="http://www.w3.org/2000/svg" viewBox="0 0 1872.2 1590.2"><style>.st0{fill:#80ab40}.st1{fill:#a5ce39}.st2{fill:#d8e074}.st3{fill:#dce8a3}.st4{fill:#f0f5d4}</style><path class="st0" d="M307.3 1214.9h24v24h-24zM307.3 1188.3h24v24h-24z"/><path class="st1" d="M307.3 1161.8h24v24h-24z"/><path class="st2" d="M307.3 1108.8h24v24h-24z"/><path class="st1" d="M307.3 1082.3h24v24h-24z"/><path class="st2" d="M307.3 1055.7h24v24h-24z"/><path class="st1" d="M307.3 1029.2h24v24h-24z"/><path class="st3" d="M307.3 976.2h24v24h-24zM307.3 949.7h24v24h-24z"/><path class="st1" d="M307.3 923.1h24v24h-24z"/><path class="st4" d="M307.3 896.6h24v24h-24zM307.3 843.6h24v24h-24z"/><path class="st0" d="M334.3 1188.3h24v24h-24z"/><path class="st1" d="M334.3 1161.8h24v24h-24zM334.3 1135.3h24v24h-24z"/><path class="st2" d="M334.3 1108.8h24v24h-24zM334.3 1082.3h24v24h-24zM334.3 1055.7h24v24h-24zM334.3 1029.2h24v24h-24z"/><path class="st3" d="M334.3 1002.7h24v24h-24zM334.3 949.7h24v24h-24zM334.3 923.1h24v24h-24z"/><path class="st4" d="M334.3 896.6h24v24h-24zM334.3 870.1h24v24h-24zM334.3 843.6h24v24h-24zM334.3 817.1h24v24h-24z"/><path class="st0" d="M361.7 1214.9h24v24h-24zM361.7 1188.3h24v24h-24z"/><path class="st1" d="M361.7 1161.8h24v24h-24zM361.7 1135.3h24v24h-24z"/><path class="st2" d="M361.7 1108.8h24v24h-24z"/><path class="st1" d="M361.7 1082.3h24v24h-24z"/><path class="st2" d="M361.7 1055.7h24v24h-24zM361.7 1029.2h24v24h-24z"/><path class="st3" d="M361.7 1002.7h24v24h-24zM361.7 976.2h24v24h-24z"/><path class="st0" d="M361.7 949.7h24v24h-24z"/><path class="st3" d="M361.7 923.1h24v24h-24z"/><path class="st4" d="M361.7 896.6h24v24h-24zM361.7 870.1h24v24h-24zM361.7 843.6h24v24h-24z"/><path class="st1" d="M361.7 817.1h24v24h-24z"/><path class="st0" d="M388.7 1214.9h24v24h-24zM388.7 1188.3h24v24h-24zM388.7 1161.8h24v24h-24z"/><path class="st1" d="M388.7 1135.3h24v24h-24z"/><path class="st2" d="M388.7 1108.8h24v24h-24zM388.7 1055.7h24v24h-24z"/><path class="st1" d="M388.7 1002.7h24v24h-24z"/><path class="st3" d="M388.7 976.2h24v24h-24zM388.7 949.7h24v24h-24zM388.7 923.1h24v24h-24z"/><path class="st4" d="M388.7 896.6h24v24h-24zM388.7 870.1h24v24h-24zM388.7 843.6h24v24h-24z"/><path class="st0" d="M416 1214.9h24v24h-24zM416 1188.3h24v24h-24z"/><path class="st1" d="M416 1135.3h24v24h-24z"/><path class="st2" d="M416 1108.8h24v24h-24zM416 1082.3h24v24h-24zM416 1055.7h24v24h-24zM416 1029.2h24v24h-24z"/><path class="st3" d="M416 1002.7h24v24h-24zM416 976.2h24v24h-24zM416 949.7h24v24h-24zM416 923.1h24v24h-24z"/><path class="st4" d="M416 896.6h24v24h-24zM416 843.6h24v24h-24zM416 817.1h24v24h-24z"/><path class="st1" d="M443 1214.9h24v24h-24z"/><path class="st0" d="M443 1188.3h24v24h-24zM443 1161.8h24v24h-24z"/><path class="st1" d="M443 1135.3h24v24h-24zM443 1108.8h24v24h-24z"/><path class="st2" d="M443 1082.3h24v24h-24zM443 1055.7h24v24h-24zM443 1029.2h24v24h-24z"/><path class="st3" d="M443 949.7h24v24h-24zM443 923.1h24v24h-24z"/><path class="st0" d="M443 896.6h24v24h-24z"/><path class="st4" d="M443 843.6h24v24h-24zM443 817.1h24v24h-24z"/><path class="st0" d="M470.4 1214.9h24v24h-24zM470.4 1188.3h24v24h-24zM470.4 1161.8h24v24h-24z"/><path class="st1" d="M470.4 1135.3h24v24h-24z"/><path class="st2" d="M470.4 1082.3h24v24h-24zM470.4 1055.7h24v24h-24zM470.4 1029.2h24v24h-24z"/><path class="st3" d="M470.4 1002.7h24v24h-24zM470.4 976.2h24v24h-24z"/><path class="st2" d="M470.4 949.7h24v24h-24z"/><path class="st3" d="M470.4 923.1h24v24h-24z"/><path class="st4" d="M470.4 896.6h24v24h-24z"/><path class="st0" d="M497.4 1214.9h24v24h-24z"/><path class="st1" d="M497.4 1188.3h24v24h-24z"/><path class="st0" d="M497.4 1161.8h24v24h-24z"/><path class="st1" d="M497.4 1135.3h24v24h-24z"/><path class="st2" d="M497.4 1108.8h24v24h-24z"/><path class="st1" d="M497.4 1082.3h24v24h-24z"/><path class="st0" d="M497.4 1055.7h24v24h-24z"/><path class="st2" d="M497.4 1029.2h24v24h-24z"/><path class="st1" d="M497.4 1002.7h24v24h-24z"/><path class="st3" d="M497.4 976.2h24v24h-24zM497.4 949.7h24v24h-24zM497.4 923.1h24v24h-24z"/><path class="st4" d="M497.4 896.6h24v24h-24zM497.4 870.1h24v24h-24z"/><path class="st1" d="M524.8 1214.9h24v24h-24z"/><path class="st0" d="M524.8 1188.3h24v24h-24z"/><path class="st1" d="M524.8 1135.3h24v24h-24z"/><path class="st2" d="M524.8 1108.8h24v24h-24z"/><path class="st1" d="M524.8 1082.3h24v24h-24z"/><path class="st2" d="M524.8 1055.7h24v24h-24zM524.8 1029.2h24v24h-24z"/><path class="st3" d="M524.8 1002.7h24v24h-24zM524.8 976.2h24v24h-24zM524.8 923.1h24v24h-24z"/><path class="st4" d="M524.8 896.6h24v24h-24zM524.8 870.1h24v24h-24zM524.8 843.6h24v24h-24zM524.8 817.1h24v24h-24z"/><path class="st0" d="M551.8 1214.9h24v24h-24zM551.8 1188.3h24v24h-24zM551.8 1161.8h24v24h-24z"/><path class="st1" d="M551.8 1135.3h24v24h-24z"/><path class="st2" d="M551.8 1108.8h24v24h-24zM551.8 1082.3h24v24h-24zM551.8 1055.7h24v24h-24zM551.8 1029.2h24v24h-24z"/><path class="st3" d="M551.8 976.2h24v24h-24zM551.8 949.7h24v24h-24z"/><path class="st4" d="M551.8 843.6h24v24h-24zM551.8 817.1h24v24h-24z"/><path class="st0" d="M579.2 1214.9h24v24h-24zM579.2 1188.3h24v24h-24zM579.2 1161.8h24v24h-24z"/><path class="st1" d="M579.2 1135.3h24v24h-24z"/><path class="st2" d="M579.2 1108.8h24v24h-24zM579.2 1082.3h24v24h-24zM579.2 1055.7h24v24h-24zM579.2 1029.2h24v24h-24z"/><path class="st3" d="M579.2 1002.7h24v24h-24zM579.2 976.2h24v24h-24zM579.2 949.7h24v24h-24zM579.2 923.1h24v24h-24z"/><path class="st4" d="M579.2 896.6h24v24h-24z"/><path class="st2" d="M579.2 870.1h24v24h-24z"/><path class="st0" d="M606.2 1214.9h24v24h-24zM606.2 1188.3h24v24h-24zM606.2 1161.8h24v24h-24zM606.2 1135.3h24v24h-24z"/><path class="st2" d="M606.2 1108.8h24v24h-24zM606.2 1082.3h24v24h-24zM606.2 1055.7h24v24h-24z"/><path class="st1" d="M606.2 1029.2h24v24h-24z"/><path class="st4" d="M606.2 896.6h24v24h-24zM606.2 870.1h24v24h-24z"/><path class="st2" d="M606.2 843.6h24v24h-24z"/><path class="st4" d="M606.2 817.1h24v24h-24z"/><path class="st1" d="M633.6 1214.9h24v24h-24z"/><path class="st0" d="M633.6 1188.3h24v24h-24zM633.6 1161.8h24v24h-24z"/><path class="st2" d="M633.6 1082.3h24v24h-24zM633.6 1055.7h24v24h-24zM633.6 1029.2h24v24h-24z"/><path class="st3" d="M633.6 1002.7h24v24h-24z"/><path class="st0" d="M633.6 976.2h24v24h-24z"/><path class="st3" d="M633.6 949.7h24v24h-24zM633.6 923.1h24v24h-24z"/><path class="st4" d="M633.6 896.6h24v24h-24z"/><path class="st0" d="M660.6 1214.9h24v24h-24zM660.6 1188.3h24v24h-24zM660.6 1161.8h24v24h-24z"/><path class="st1" d="M660.6 1135.3h24v24h-24z"/><path class="st2" d="M660.6 1108.8h24v24h-24z"/><path class="st1" d="M660.6 1082.3h24v24h-24z"/><path class="st2" d="M660.6 1055.7h24v24h-24z"/><path class="st1" d="M660.6 1029.2h24v24h-24z"/><path class="st3" d="M660.6 1002.7h24v24h-24zM660.6 976.2h24v24h-24zM660.6 949.7h24v24h-24zM660.6 923.1h24v24h-24z"/><path class="st4" d="M660.6 870.1h24v24h-24zM660.6 843.6h24v24h-24zM660.6 817.1h24v24h-24z"/><path class="st0" d="M688 1214.9h24v24h-24zM688 1188.3h24v24h-24zM688 1161.8h24v24h-24z"/><path class="st1" d="M688 1135.3h24v24h-24z"/><path class="st2" d="M688 1108.8h24v24h-24zM688 1082.3h24v24h-24zM688 1055.7h24v24h-24zM688 1029.2h24v24h-24z"/><path class="st3" d="M688 976.2h24v24h-24zM688 949.7h24v24h-24z"/><path class="st4" d="M688 896.6h24v24h-24zM688 870.1h24v24h-24zM688 843.6h24v24h-24zM688 817.1h24v24h-24z"/><path class="st0" d="M715 1214.9h24v24h-24zM715 1188.3h24v24h-24zM715 1161.8h24v24h-24z"/><path class="st1" d="M715 1135.3h24v24h-24zM715 1108.8h24v24h-24z"/><path class="st2" d="M715 1082.3h24v24h-24z"/><path class="st1" d="M715 1055.7h24v24h-24z"/><path class="st2" d="M715 1029.2h24v24h-24z"/><path class="st3" d="M715 1002.7h24v24h-24z"/><path class="st0" d="M715 976.2h24v24h-24z"/><path class="st3" d="M715 949.7h24v24h-24zM715 923.1h24v24h-24z"/><path class="st4" d="M715 896.6h24v24h-24z"/><path class="st0" d="M742.3 1214.9h24v24h-24zM742.3 1188.3h24v24h-24zM742.3 1161.8h24v24h-24z"/><path class="st1" d="M742.3 1135.3h24v24h-24zM742.3 1082.3h24v24h-24z"/><path class="st0" d="M742.3 1055.7h24v24h-24z"/><path class="st2" d="M742.3 1029.2h24v24h-24z"/><path class="st3" d="M742.3 976.2h24v24h-24zM742.3 949.7h24v24h-24z"/><path class="st4" d="M742.3 896.6h24v24h-24zM742.3 870.1h24v24h-24zM742.3 843.6h24v24h-24z"/><path class="st0" d="M769.3 1161.8h24v24h-24z"/><path class="st1" d="M769.3 1135.3h24v24h-24z"/><path class="st2" d="M769.3 1108.8h24v24h-24zM769.3 1082.3h24v24h-24zM769.3 1055.7h24v24h-24zM769.3 1029.2h24v24h-24zM769.3 1002.7h24v24h-24z"/><path class="st1" d="M769.3 1188.3h24v24h-24z"/><path class="st3" d="M769.3 949.7h24v24h-24zM769.3 923.1h24v24h-24z"/><path class="st4" d="M769.3 896.6h24v24h-24zM769.3 843.6h24v24h-24zM769.3 817.1h24v24h-24z"/><path class="st0" d="M796.7 1214.9h24v24h-24zM796.7 1188.3h24v24h-24zM796.7 1161.8h24v24h-24zM796.7 1135.3h24v24h-24z"/><path class="st2" d="M796.7 1108.8h24v24h-24zM796.7 1055.7h24v24h-24zM796.7 1029.2h24v24h-24zM796.7 1002.7h24v24h-24z"/><path class="st3" d="M796.7 976.2h24v24h-24zM796.7 949.7h24v24h-24zM796.7 923.1h24v24h-24z"/><path class="st4" d="M796.7 896.6h24v24h-24z"/><path class="st0" d="M796.7 870.1h24v24h-24z"/><path class="st2" d="M796.7 843.6h24v24h-24z"/><path class="st0" d="M823.7 1214.9h24v24h-24zM823.7 1188.3h24v24h-24zM823.7 1161.8h24v24h-24z"/><path class="st2" d="M823.7 1108.8h24v24h-24zM823.7 1082.3h24v24h-24zM823.7 1055.7h24v24h-24zM823.7 1029.2h24v24h-24zM823.7 1002.7h24v24h-24z"/><path class="st0" d="M823.7 976.2h24v24h-24z"/><path class="st3" d="M823.7 949.7h24v24h-24z"/><path class="st4" d="M823.7 896.6h24v24h-24zM823.7 870.1h24v24h-24zM823.7 843.6h24v24h-24zM823.7 817.1h24v24h-24z"/><path class="st0" d="M851.1 1214.9h24v24h-24zM851.1 1188.3h24v24h-24zM851.1 1161.8h24v24h-24z"/><path class="st1" d="M851.1 1135.3h24v24h-24z"/><path class="st2" d="M851.1 1108.8h24v24h-24z"/><path class="st1" d="M851.1 1082.3h24v24h-24z"/><path class="st2" d="M851.1 1055.7h24v24h-24z"/><path class="st1" d="M851.1 1002.7h24v24h-24z"/><path class="st3" d="M851.1 949.7h24v24h-24zM851.1 923.1h24v24h-24z"/><path class="st2" d="M851.1 896.6h24v24h-24z"/><path class="st4" d="M851.1 870.1h24v24h-24zM851.1 843.6h24v24h-24z"/><path class="st0" d="M878.1 1214.9h24v24h-24zM878.1 1188.3h24v24h-24zM878.1 1161.8h24v24h-24z"/><path class="st1" d="M878.1 1135.3h24v24h-24z"/><path class="st2" d="M878.1 1108.8h24v24h-24zM878.1 1082.3h24v24h-24zM878.1 1029.2h24v24h-24zM878.1 1002.7h24v24h-24z"/><path class="st3" d="M878.1 949.7h24v24h-24z"/><path class="st4" d="M878.1 896.6h24v24h-24z"/><path class="st0" d="M905.5 1214.9h24v24h-24zM905.5 1188.3h24v24h-24zM905.5 1161.8h24v24h-24z"/><path class="st1" d="M905.5 1135.3h24v24h-24z"/><path class="st2" d="M905.5 1108.8h24v24h-24zM905.5 1082.3h24v24h-24zM905.5 1055.7h24v24h-24zM905.5 1029.2h24v24h-24zM905.5 1002.7h24v24h-24z"/><path class="st3" d="M905.5 976.2h24v24h-24zM905.5 949.7h24v24h-24zM905.5 923.1h24v24h-24z"/><path class="st4" d="M905.5 896.6h24v24h-24z"/><path class="st1" d="M905.5 870.1h24v24h-24z"/><path class="st4" d="M905.5 843.6h24v24h-24zM905.5 817.1h24v24h-24z"/><path class="st0" d="M932.5 1214.9h24v24h-24zM932.5 1188.3h24v24h-24z"/><path class="st1" d="M932.5 1135.3h24v24h-24z"/><path class="st2" d="M932.5 1108.8h24v24h-24zM932.5 1082.3h24v24h-24z"/><path class="st0" d="M932.5 1055.7h24v24h-24z"/><path class="st1" d="M932.5 1029.2h24v24h-24z"/><path class="st2" d="M932.5 1002.7h24v24h-24z"/><path class="st3" d="M932.5 976.2h24v24h-24zM932.5 949.7h24v24h-24zM932.5 923.1h24v24h-24z"/><path class="st4" d="M932.5 896.6h24v24h-24zM932.5 870.1h24v24h-24zM932.5 817.1h24v24h-24z"/><path class="st0" d="M959.9 1214.9h24v24h-24z"/><path class="st1" d="M959.9 1188.3h24v24h-24z"/><path class="st0" d="M959.9 1161.8h24v24h-24z"/><path class="st1" d="M959.9 1135.3h24v24h-24z"/><path class="st2" d="M959.9 1108.8h24v24h-24zM959.9 1029.2h24v24h-24zM959.9 1002.7h24v24h-24z"/><path class="st3" d="M959.9 976.2h24v24h-24z"/><path class="st1" d="M959.9 949.7h24v24h-24z"/><path class="st3" d="M959.9 923.1h24v24h-24z"/><path class="st4" d="M959.9 896.6h24v24h-24z"/><path class="st0" d="M986.9 1214.9h24v24h-24zM986.9 1188.3h24v24h-24zM986.9 1161.8h24v24h-24z"/><path class="st1" d="M986.9 1135.3h24v24h-24z"/><path class="st2" d="M986.9 1108.8h24v24h-24zM986.9 1082.3h24v24h-24zM986.9 1055.7h24v24h-24z"/><path class="st1" d="M986.9 1029.2h24v24h-24z"/><path class="st2" d="M986.9 1002.7h24v24h-24z"/><path class="st3" d="M986.9 949.7h24v24h-24zM986.9 923.1h24v24h-24z"/><path class="st4" d="M986.9 896.6h24v24h-24zM986.9 870.1h24v24h-24zM986.9 843.6h24v24h-24zM986.9 817.1h24v24h-24z"/><path class="st0" d="M1014.3 1214.9h24v24h-24zM1014.3 1188.3h24v24h-24zM1014.3 1161.8h24v24h-24z"/><path class="st1" d="M1014.3 1135.3h24v24h-24z"/><path class="st2" d="M1014.3 1108.8h24v24h-24zM1014.3 1082.3h24v24h-24zM1014.3 1055.7h24v24h-24zM1014.3 1029.2h24v24h-24zM1014.3 1002.7h24v24h-24z"/><path class="st3" d="M1014.3 976.2h24v24h-24zM1014.3 949.7h24v24h-24z"/><path class="st4" d="M1014.3 896.6h24v24h-24zM1014.3 843.6h24v24h-24zM1014.3 817.1h24v24h-24z"/><path class="st0" d="M1041.3 1214.9h24v24h-24zM1041.3 1188.3h24v24h-24z"/><path class="st1" d="M1041.3 1161.8h24v24h-24zM1041.3 1135.3h24v24h-24z"/><path class="st2" d="M1041.3 1108.8h24v24h-24zM1041.3 1082.3h24v24h-24zM1041.3 1055.7h24v24h-24zM1041.3 1029.2h24v24h-24z"/><path class="st1" d="M1041.3 1002.7h24v24h-24z"/><path class="st3" d="M1041.3 976.2h24v24h-24zM1041.3 923.1h24v24h-24z"/><path class="st0" d="M1041.3 896.6h24v24h-24z"/><path class="st4" d="M1041.3 870.1h24v24h-24zM1041.3 843.6h24v24h-24z"/></svg>